<mxfile host="65bd71144e">
    <diagram id="XhtdH4Nqx-oc-2cA1XXA" name="Use Case">
        <mxGraphModel dx="1324" dy="925" grid="1" gridSize="10" guides="1" tooltips="1" connect="1" arrows="1" fold="1" page="1" pageScale="1" pageWidth="850" pageHeight="1100" math="0" shadow="0">
            <root>
                <mxCell id="0"/>
                <mxCell id="1" parent="0"/>
                <mxCell id="16" style="edgeStyle=none;html=1;entryX=0;entryY=0.5;entryDx=0;entryDy=0;fontSize=15;endArrow=none;endFill=0;" edge="1" parent="1" target="12">
                    <mxGeometry relative="1" as="geometry">
                        <mxPoint x="60" y="470" as="sourcePoint"/>
                        <Array as="points">
                            <mxPoint x="170" y="563"/>
                        </Array>
                    </mxGeometry>
                </mxCell>
                <mxCell id="2" value="User" style="shape=umlActor;verticalLabelPosition=bottom;verticalAlign=top;html=1;outlineConnect=0;" vertex="1" parent="1">
                    <mxGeometry x="40" y="375" width="40" height="70" as="geometry"/>
                </mxCell>
                <mxCell id="4" style="edgeStyle=none;html=1;endArrow=none;endFill=0;" edge="1" parent="1" source="3">
                    <mxGeometry relative="1" as="geometry">
                        <mxPoint x="60" y="370" as="targetPoint"/>
                        <Array as="points">
                            <mxPoint x="180" y="80"/>
                        </Array>
                    </mxGeometry>
                </mxCell>
                <mxCell id="3" value="Login" style="ellipse;whiteSpace=wrap;html=1;verticalAlign=middle;fontSize=15;fillColor=#0050ef;fontColor=#ffffff;strokeColor=#001DBC;" vertex="1" parent="1">
                    <mxGeometry x="202" y="40" width="200" height="80" as="geometry"/>
                </mxCell>
                <mxCell id="6" style="edgeStyle=none;html=1;fontSize=15;endArrow=none;endFill=0;" edge="1" parent="1" source="5" target="2">
                    <mxGeometry relative="1" as="geometry">
                        <Array as="points">
                            <mxPoint x="180" y="215"/>
                        </Array>
                    </mxGeometry>
                </mxCell>
                <mxCell id="5" value="Registration" style="ellipse;whiteSpace=wrap;html=1;verticalAlign=middle;fontSize=15;fillColor=#0050ef;fontColor=#ffffff;strokeColor=#001DBC;" vertex="1" parent="1">
                    <mxGeometry x="200" y="175" width="198" height="80" as="geometry"/>
                </mxCell>
                <mxCell id="20" style="edgeStyle=none;html=1;entryX=0;entryY=0.5;entryDx=0;entryDy=0;fontSize=13;endArrow=none;endFill=0;" edge="1" parent="1" source="8" target="19">
                    <mxGeometry relative="1" as="geometry"/>
                </mxCell>
                <mxCell id="8" value="Manage Profile" style="ellipse;whiteSpace=wrap;html=1;verticalAlign=middle;fontSize=15;fillColor=#0050ef;fontColor=#ffffff;strokeColor=#001DBC;" vertex="1" parent="1">
                    <mxGeometry x="431" y="880" width="138" height="70" as="geometry"/>
                </mxCell>
                <mxCell id="14" style="edgeStyle=none;html=1;entryX=1;entryY=0.3333333333333333;entryDx=0;entryDy=0;entryPerimeter=0;fontSize=15;endArrow=none;endFill=0;" edge="1" parent="1" source="9" target="2">
                    <mxGeometry relative="1" as="geometry">
                        <Array as="points">
                            <mxPoint x="180" y="320"/>
                        </Array>
                    </mxGeometry>
                </mxCell>
                <mxCell id="22" style="edgeStyle=none;html=1;entryX=0;entryY=0.5;entryDx=0;entryDy=0;fontSize=13;endArrow=none;endFill=0;" edge="1" parent="1" source="9" target="21">
                    <mxGeometry relative="1" as="geometry"/>
                </mxCell>
                <mxCell id="9" value="Manage Contacts" style="ellipse;whiteSpace=wrap;html=1;verticalAlign=middle;fontSize=15;fillColor=#0050ef;fontColor=#ffffff;strokeColor=#001DBC;" vertex="1" parent="1">
                    <mxGeometry x="200" y="280" width="198" height="80" as="geometry"/>
                </mxCell>
                <mxCell id="15" style="edgeStyle=none;html=1;fontSize=15;endArrow=none;endFill=0;" edge="1" parent="1" source="11" target="2">
                    <mxGeometry relative="1" as="geometry">
                        <mxPoint x="70" y="470" as="targetPoint"/>
                        <Array as="points">
                            <mxPoint x="170" y="440"/>
                        </Array>
                    </mxGeometry>
                </mxCell>
                <mxCell id="26" style="edgeStyle=none;html=1;fontSize=13;endArrow=none;endFill=0;" edge="1" parent="1" source="11" target="25">
                    <mxGeometry relative="1" as="geometry"/>
                </mxCell>
                <mxCell id="11" value="Manage Personal &lt;br&gt;Chat Room" style="ellipse;whiteSpace=wrap;html=1;verticalAlign=middle;fontSize=15;fillColor=#0050ef;fontColor=#ffffff;strokeColor=#001DBC;" vertex="1" parent="1">
                    <mxGeometry x="203" y="400" width="198" height="80" as="geometry"/>
                </mxCell>
                <mxCell id="28" style="edgeStyle=none;html=1;entryX=0;entryY=0.5;entryDx=0;entryDy=0;fontSize=13;endArrow=none;endFill=0;" edge="1" parent="1" source="12" target="27">
                    <mxGeometry relative="1" as="geometry"/>
                </mxCell>
                <mxCell id="12" value="Manage Group&lt;br&gt;Chat Room" style="ellipse;whiteSpace=wrap;html=1;verticalAlign=middle;fontSize=15;fillColor=#0050ef;fontColor=#ffffff;strokeColor=#001DBC;" vertex="1" parent="1">
                    <mxGeometry x="202" y="523.25" width="198" height="80" as="geometry"/>
                </mxCell>
                <mxCell id="19" value="Personal information, name, photos, email, etc" style="ellipse;whiteSpace=wrap;html=1;verticalAlign=middle;fontSize=11;labelBackgroundColor=none;fillColor=#60a917;fontColor=#ffffff;strokeColor=#2D7600;" vertex="1" parent="1">
                    <mxGeometry x="640" y="875" width="160" height="80" as="geometry"/>
                </mxCell>
                <mxCell id="21" value="Search, add, edit, &lt;br style=&quot;font-size: 11px;&quot;&gt;delete, block" style="ellipse;whiteSpace=wrap;html=1;verticalAlign=middle;fontSize=11;labelBackgroundColor=none;fillColor=#60a917;fontColor=#ffffff;strokeColor=#2D7600;" vertex="1" parent="1">
                    <mxGeometry x="480" y="280" width="180" height="80" as="geometry"/>
                </mxCell>
                <mxCell id="24" style="edgeStyle=none;html=1;fontSize=13;endArrow=none;endFill=0;" edge="1" parent="1" source="23">
                    <mxGeometry relative="1" as="geometry">
                        <mxPoint x="50" y="470" as="targetPoint"/>
                        <Array as="points">
                            <mxPoint x="150" y="810"/>
                        </Array>
                    </mxGeometry>
                </mxCell>
                <mxCell id="33" style="edgeStyle=none;html=1;entryX=0;entryY=0.5;entryDx=0;entryDy=0;fontSize=13;endArrow=none;endFill=0;" edge="1" parent="1" source="23" target="31">
                    <mxGeometry relative="1" as="geometry"/>
                </mxCell>
                <mxCell id="34" style="edgeStyle=none;html=1;entryX=-0.013;entryY=0.568;entryDx=0;entryDy=0;entryPerimeter=0;fontSize=13;endArrow=none;endFill=0;" edge="1" parent="1" source="23" target="30">
                    <mxGeometry relative="1" as="geometry"/>
                </mxCell>
                <mxCell id="35" style="edgeStyle=none;html=1;entryX=0;entryY=0.5;entryDx=0;entryDy=0;fontSize=13;endArrow=none;endFill=0;" edge="1" parent="1" source="23" target="32">
                    <mxGeometry relative="1" as="geometry"/>
                </mxCell>
                <mxCell id="39" style="edgeStyle=none;html=1;entryX=0;entryY=0.5;entryDx=0;entryDy=0;fontSize=11;endArrow=none;endFill=0;exitX=1;exitY=1;exitDx=0;exitDy=0;" edge="1" parent="1" source="23" target="8">
                    <mxGeometry relative="1" as="geometry"/>
                </mxCell>
                <mxCell id="23" value="Manage setting" style="ellipse;whiteSpace=wrap;html=1;verticalAlign=middle;fontSize=15;fillColor=#0050ef;fontColor=#ffffff;strokeColor=#001DBC;" vertex="1" parent="1">
                    <mxGeometry x="170" y="771" width="198" height="80" as="geometry"/>
                </mxCell>
                <mxCell id="25" value="Search, create, send/receive messages, &lt;br style=&quot;font-size: 11px;&quot;&gt;delete chat/chat room" style="ellipse;whiteSpace=wrap;html=1;verticalAlign=middle;fontSize=11;labelBackgroundColor=none;fillColor=#60a917;fontColor=#ffffff;strokeColor=#2D7600;" vertex="1" parent="1">
                    <mxGeometry x="480" y="400" width="180" height="80" as="geometry"/>
                </mxCell>
                <mxCell id="27" value="Search, create, add/delete member contact send/receive messages, delete chat/chat room" style="ellipse;whiteSpace=wrap;html=1;verticalAlign=middle;fontSize=11;labelBackgroundColor=none;fillColor=#60a917;fontColor=#ffffff;strokeColor=#2D7600;" vertex="1" parent="1">
                    <mxGeometry x="480" y="510" width="190" height="106.5" as="geometry"/>
                </mxCell>
                <mxCell id="37" style="edgeStyle=none;html=1;entryX=0;entryY=0.5;entryDx=0;entryDy=0;fontSize=11;endArrow=none;endFill=0;" edge="1" parent="1" source="30" target="36">
                    <mxGeometry relative="1" as="geometry"/>
                </mxCell>
                <mxCell id="30" value="Manage Account" style="ellipse;whiteSpace=wrap;html=1;verticalAlign=middle;fontSize=15;fillColor=#0050ef;fontColor=#ffffff;strokeColor=#001DBC;" vertex="1" parent="1">
                    <mxGeometry x="410" y="653.25" width="160" height="80" as="geometry"/>
                </mxCell>
                <mxCell id="40" style="edgeStyle=none;html=1;entryX=0;entryY=0.5;entryDx=0;entryDy=0;fontSize=11;endArrow=none;endFill=0;" edge="1" parent="1" source="31" target="38">
                    <mxGeometry relative="1" as="geometry"/>
                </mxCell>
                <mxCell id="31" value="Privacy" style="ellipse;whiteSpace=wrap;html=1;verticalAlign=middle;fontSize=15;fillColor=#0050ef;fontColor=#ffffff;strokeColor=#001DBC;" vertex="1" parent="1">
                    <mxGeometry x="430" y="776" width="160" height="70" as="geometry"/>
                </mxCell>
                <mxCell id="32" value="Language Setting" style="ellipse;whiteSpace=wrap;html=1;verticalAlign=middle;fontSize=15;fillColor=#0050ef;fontColor=#ffffff;strokeColor=#001DBC;" vertex="1" parent="1">
                    <mxGeometry x="440" y="990" width="160" height="70" as="geometry"/>
                </mxCell>
                <mxCell id="36" value="Change number, change password, delete account" style="ellipse;whiteSpace=wrap;html=1;verticalAlign=middle;fontSize=11;fillColor=#60a917;fontColor=#ffffff;strokeColor=#2D7600;" vertex="1" parent="1">
                    <mxGeometry x="630" y="645.5" width="170" height="95.5" as="geometry"/>
                </mxCell>
                <mxCell id="38" value="who can see profile picture, online status and info.&lt;br&gt;&amp;nbsp;block contact list.&amp;nbsp;" style="ellipse;whiteSpace=wrap;html=1;verticalAlign=middle;fontSize=11;fillColor=#60a917;fontColor=#ffffff;strokeColor=#2D7600;" vertex="1" parent="1">
                    <mxGeometry x="635" y="763.25" width="160" height="95.5" as="geometry"/>
                </mxCell>
            </root>
        </mxGraphModel>
    </diagram>
    <diagram id="aSoF14fhIubu4Wz9YAtX" name="Page-2">
        <mxGraphModel dx="1635" dy="1142" grid="1" gridSize="10" guides="1" tooltips="1" connect="1" arrows="1" fold="1" page="1" pageScale="1" pageWidth="850" pageHeight="1100" math="0" shadow="0">
            <root>
                <mxCell id="0"/>
                <mxCell id="1" parent="0"/>
                <mxCell id="W1kp6FrzmsW_AHHy4bBV-4" value="&lt;font style=&quot;font-size: 14px;&quot;&gt;Authentication&lt;/font&gt;" style="shape=umlFrame;whiteSpace=wrap;html=1;width=120;height=30;boundedLbl=1;verticalAlign=middle;align=left;spacingLeft=5;labelBackgroundColor=none;fontSize=11;movable=0;resizable=0;rotatable=0;deletable=0;editable=0;connectable=0;" vertex="1" parent="1">
                    <mxGeometry x="40" y="40" width="760" height="430" as="geometry"/>
                </mxCell>
                <mxCell id="W1kp6FrzmsW_AHHy4bBV-5" value="User struct" style="swimlane;fontStyle=1;align=center;verticalAlign=top;childLayout=stackLayout;horizontal=1;startSize=26;horizontalStack=0;resizeParent=1;resizeParentMax=0;resizeLast=0;collapsible=1;marginBottom=0;labelBackgroundColor=none;fontSize=14;" vertex="1" parent="1">
                    <mxGeometry x="60" y="100" width="160" height="314" as="geometry"/>
                </mxCell>
                <object label="ID: primitive.ObjectID" name="" id="W1kp6FrzmsW_AHHy4bBV-9">
                    <mxCell style="text;strokeColor=none;fillColor=none;align=left;verticalAlign=top;spacingLeft=4;spacingRight=4;overflow=hidden;rotatable=0;points=[[0,0.5],[1,0.5]];portConstraint=eastwest;labelBackgroundColor=none;fontSize=14;" vertex="1" parent="W1kp6FrzmsW_AHHy4bBV-5">
                        <mxGeometry y="26" width="160" height="24" as="geometry"/>
                    </mxCell>
                </object>
                <object label="Name: string" name="" id="W1kp6FrzmsW_AHHy4bBV-10">
                    <mxCell style="text;strokeColor=none;fillColor=none;align=left;verticalAlign=top;spacingLeft=4;spacingRight=4;overflow=hidden;rotatable=0;points=[[0,0.5],[1,0.5]];portConstraint=eastwest;labelBackgroundColor=none;fontSize=14;" vertex="1" parent="W1kp6FrzmsW_AHHy4bBV-5">
                        <mxGeometry y="50" width="160" height="24" as="geometry"/>
                    </mxCell>
                </object>
                <object label="Username: string" name="" id="W1kp6FrzmsW_AHHy4bBV-11">
                    <mxCell style="text;strokeColor=none;fillColor=none;align=left;verticalAlign=top;spacingLeft=4;spacingRight=4;overflow=hidden;rotatable=0;points=[[0,0.5],[1,0.5]];portConstraint=eastwest;labelBackgroundColor=none;fontSize=14;" vertex="1" parent="W1kp6FrzmsW_AHHy4bBV-5">
                        <mxGeometry y="74" width="160" height="24" as="geometry"/>
                    </mxCell>
                </object>
                <object label="Email: string" name="" id="W1kp6FrzmsW_AHHy4bBV-12">
                    <mxCell style="text;strokeColor=none;fillColor=none;align=left;verticalAlign=top;spacingLeft=4;spacingRight=4;overflow=hidden;rotatable=0;points=[[0,0.5],[1,0.5]];portConstraint=eastwest;labelBackgroundColor=none;fontSize=14;" vertex="1" parent="W1kp6FrzmsW_AHHy4bBV-5">
                        <mxGeometry y="98" width="160" height="24" as="geometry"/>
                    </mxCell>
                </object>
                <object label="Password: string" name="" id="W1kp6FrzmsW_AHHy4bBV-13">
                    <mxCell style="text;strokeColor=none;fillColor=none;align=left;verticalAlign=top;spacingLeft=4;spacingRight=4;overflow=hidden;rotatable=0;points=[[0,0.5],[1,0.5]];portConstraint=eastwest;labelBackgroundColor=none;fontSize=14;" vertex="1" parent="W1kp6FrzmsW_AHHy4bBV-5">
                        <mxGeometry y="122" width="160" height="24" as="geometry"/>
                    </mxCell>
                </object>
                <object label="Phone: string" name="" id="W1kp6FrzmsW_AHHy4bBV-14">
                    <mxCell style="text;strokeColor=none;fillColor=none;align=left;verticalAlign=top;spacingLeft=4;spacingRight=4;overflow=hidden;rotatable=0;points=[[0,0.5],[1,0.5]];portConstraint=eastwest;labelBackgroundColor=none;fontSize=14;" vertex="1" parent="W1kp6FrzmsW_AHHy4bBV-5">
                        <mxGeometry y="146" width="160" height="24" as="geometry"/>
                    </mxCell>
                </object>
                <object label="Token: string" name="" id="W1kp6FrzmsW_AHHy4bBV-15">
                    <mxCell style="text;strokeColor=none;fillColor=none;align=left;verticalAlign=top;spacingLeft=4;spacingRight=4;overflow=hidden;rotatable=0;points=[[0,0.5],[1,0.5]];portConstraint=eastwest;labelBackgroundColor=none;fontSize=14;" vertex="1" parent="W1kp6FrzmsW_AHHy4bBV-5">
                        <mxGeometry y="170" width="160" height="24" as="geometry"/>
                    </mxCell>
                </object>
                <object label="UserType: string" name="" id="W1kp6FrzmsW_AHHy4bBV-16">
                    <mxCell style="text;strokeColor=none;fillColor=none;align=left;verticalAlign=top;spacingLeft=4;spacingRight=4;overflow=hidden;rotatable=0;points=[[0,0.5],[1,0.5]];portConstraint=eastwest;labelBackgroundColor=none;fontSize=14;" vertex="1" parent="W1kp6FrzmsW_AHHy4bBV-5">
                        <mxGeometry y="194" width="160" height="24" as="geometry"/>
                    </mxCell>
                </object>
                <object label="RefreshToken: string" name="" id="W1kp6FrzmsW_AHHy4bBV-17">
                    <mxCell style="text;strokeColor=none;fillColor=none;align=left;verticalAlign=top;spacingLeft=4;spacingRight=4;overflow=hidden;rotatable=0;points=[[0,0.5],[1,0.5]];portConstraint=eastwest;labelBackgroundColor=none;fontSize=14;" vertex="1" parent="W1kp6FrzmsW_AHHy4bBV-5">
                        <mxGeometry y="218" width="160" height="24" as="geometry"/>
                    </mxCell>
                </object>
                <object label="CreatedAt: time.Time" name="" id="W1kp6FrzmsW_AHHy4bBV-18">
                    <mxCell style="text;strokeColor=none;fillColor=none;align=left;verticalAlign=top;spacingLeft=4;spacingRight=4;overflow=hidden;rotatable=0;points=[[0,0.5],[1,0.5]];portConstraint=eastwest;labelBackgroundColor=none;fontSize=14;" vertex="1" parent="W1kp6FrzmsW_AHHy4bBV-5">
                        <mxGeometry y="242" width="160" height="24" as="geometry"/>
                    </mxCell>
                </object>
                <object label="UpdatedAt: time.Time" name="" id="W1kp6FrzmsW_AHHy4bBV-19">
                    <mxCell style="text;strokeColor=none;fillColor=none;align=left;verticalAlign=top;spacingLeft=4;spacingRight=4;overflow=hidden;rotatable=0;points=[[0,0.5],[1,0.5]];portConstraint=eastwest;labelBackgroundColor=none;fontSize=14;" vertex="1" parent="W1kp6FrzmsW_AHHy4bBV-5">
                        <mxGeometry y="266" width="160" height="24" as="geometry"/>
                    </mxCell>
                </object>
                <object label="UserID: string" name="" id="W1kp6FrzmsW_AHHy4bBV-20">
                    <mxCell style="text;strokeColor=none;fillColor=none;align=left;verticalAlign=top;spacingLeft=4;spacingRight=4;overflow=hidden;rotatable=0;points=[[0,0.5],[1,0.5]];portConstraint=eastwest;labelBackgroundColor=none;fontSize=14;" vertex="1" parent="W1kp6FrzmsW_AHHy4bBV-5">
                        <mxGeometry y="290" width="160" height="24" as="geometry"/>
                    </mxCell>
                </object>
            </root>
        </mxGraphModel>
    </diagram>
    <diagram id="7Be1DGKB30SNJVFfLeU4" name="Page-3">
        <mxGraphModel dx="1390" dy="971" grid="1" gridSize="10" guides="1" tooltips="1" connect="1" arrows="1" fold="1" page="1" pageScale="1" pageWidth="850" pageHeight="1100" math="0" shadow="0">
            <root>
                <mxCell id="0"/>
                <mxCell id="1" parent="0"/>
            </root>
        </mxGraphModel>
    </diagram>
</mxfile>